<?xml version="1.0" encoding="UTF-8" standalone="no"?>
<svg
   xmlns:dc="http://purl.org/dc/elements/1.1/"
   xmlns:cc="http://creativecommons.org/ns#"
   xmlns:rdf="http://www.w3.org/1999/02/22-rdf-syntax-ns#"
   xmlns:svg="http://www.w3.org/2000/svg"
   xmlns="http://www.w3.org/2000/svg"
   xmlns:sodipodi="http://sodipodi.sourceforge.net/DTD/sodipodi-0.dtd"
   xmlns:inkscape="http://www.inkscape.org/namespaces/inkscape"
   enable-background="new 0 0 550 550"
   id="Layer_1"
   version="1.1"
   viewBox="0 0 550 550"
   xml:space="preserve"
   sodipodi:docname="facebook.svg"
   inkscape:version="1.0.1 (3bc2e813f5, 2020-09-07)"><metadata
     id="metadata14"><rdf:RDF><cc:Work
         rdf:about=""><dc:format>image/svg+xml</dc:format><dc:type
           rdf:resource="http://purl.org/dc/dcmitype/StillImage" /></cc:Work></rdf:RDF></metadata><defs
     id="defs12" /><sodipodi:namedview
     pagecolor="#ffffff"
     bordercolor="#666666"
     borderopacity="1"
     objecttolerance="10"
     gridtolerance="10"
     guidetolerance="10"
     inkscape:pageopacity="0"
     inkscape:pageshadow="2"
     inkscape:window-width="1366"
     inkscape:window-height="705"
     id="namedview10"
     showgrid="false"
     inkscape:zoom="0.48909091"
     inkscape:cx="478.73658"
     inkscape:cy="439.21232"
     inkscape:window-x="-8"
     inkscape:window-y="-8"
     inkscape:window-maximized="1"
     inkscape:current-layer="Layer_1" /><rect
     style="fill:#3f65a6;fill-opacity:1;stroke-width:0.021;stop-color:#000000"
     id="rect31"
     width="508.08548"
     height="511.15237"
     x="20.95726"
     y="19.423813"
     ry="38.847584" /><path
     d="m 236.1,190.85 c 0,7.4 0,40.4 0,40.4 h -29.6 v 49.4 h 29.6 v 135.4 h 60.8 v -135.5 h 40.8 c 0,0 3.8,-23.7 5.7,-49.6 -5.3,0 -46.2,0 -46.2,0 0,0 0,-28.7 0,-33.8 0,-5 6.6,-11.8 13.2,-11.8 6.5,0 20.3,0 33.1,0 0,-6.7 0,-30 0,-51.4 -17.1,0 -36.5,0 -45,0 -63.9,0.1 -62.4,49.5 -62.4,56.9 z"
     fill="#ffffff"
     id="Facebook_4_-9" /></svg>
