<?xml version="1.0" encoding="UTF-8" standalone="no"?>
<svg
   xmlns:dc="http://purl.org/dc/elements/1.1/"
   xmlns:cc="http://creativecommons.org/ns#"
   xmlns:rdf="http://www.w3.org/1999/02/22-rdf-syntax-ns#"
   xmlns:svg="http://www.w3.org/2000/svg"
   xmlns="http://www.w3.org/2000/svg"
   xmlns:sodipodi="http://sodipodi.sourceforge.net/DTD/sodipodi-0.dtd"
   xmlns:inkscape="http://www.inkscape.org/namespaces/inkscape"
   version="1.1"
   id="Layer_1"
   x="0px"
   y="0px"
   width="24px"
   height="24px"
   viewBox="0 0 24 24"
   enable-background="new 0 0 24 24"
   xml:space="preserve"
   sodipodi:docname="whatsapp.svg"
   inkscape:version="1.0.1 (3bc2e813f5, 2020-09-07)"><metadata
   id="metadata14"><rdf:RDF><cc:Work
       rdf:about=""><dc:format>image/svg+xml</dc:format><dc:type
         rdf:resource="http://purl.org/dc/dcmitype/StillImage" /></cc:Work></rdf:RDF></metadata><defs
   id="defs12" /><sodipodi:namedview
   pagecolor="#ffffff"
   bordercolor="#666666"
   borderopacity="1"
   objecttolerance="10"
   gridtolerance="10"
   guidetolerance="10"
   inkscape:pageopacity="0"
   inkscape:pageshadow="2"
   inkscape:window-width="1366"
   inkscape:window-height="705"
   id="namedview10"
   showgrid="false"
   inkscape:zoom="15.850977"
   inkscape:cx="16.4705"
   inkscape:cy="13.921502"
   inkscape:window-x="-8"
   inkscape:window-y="-8"
   inkscape:window-maximized="1"
   inkscape:current-layer="icon"
   inkscape:document-rotation="0" />
  <g
   id="icon">
    
    <path
   d="M17.0444,7.0608c-1.2327,-1.2337,-2.872,-1.9135,-4.6186,-1.9141c-3.5987,0,-6.5276,2.9278,-6.529,6.5265c-0.0005,1.1503,0.3002,2.2732,0.8715,3.263l-0.9263,3.3822l3.4611,-0.9076c0.9536,0.52,2.0273,0.794,3.12,0.7944h0.0027c3.5983,0,6.5275,-2.9281,6.5289,-6.5269C18.9556,9.9343,18.2771,8.2945,17.0444,7.0608L17.0444,7.0608zM12.426,17.1029h-0.0022c-0.9738,-0.0004,-1.9288,-0.2619,-2.762,-0.7562l-0.1982,-0.1176l-2.0539,0.5386l0.5482,-2.0019l-0.1291,-0.2053c-0.5432,-0.8637,-0.8301,-1.8621,-0.8297,-2.8871c0.0012,-2.9911,2.4356,-5.4246,5.4289,-5.4246c1.4494,0.0006,2.812,0.5656,3.8365,1.591s1.5885,2.3884,1.588,3.8379C17.8514,14.6692,15.417,17.1029,12.426,17.1029L12.426,17.1029zM15.4026,13.0399c-0.1632,-0.0816,-0.9652,-0.4762,-1.1147,-0.5306c-0.1495,-0.0544,-0.2583,-0.0816,-0.3671,0.0816c-0.1087,0.1633,-0.4214,0.5306,-0.5166,0.6394c-0.0952,0.1088,-0.1903,0.1225,-0.3534,0.0408c-0.1631,-0.0816,-0.6888,-0.2538,-1.3119,-0.8094c-0.4849,-0.4324,-0.8124,-0.9665,-0.9075,-1.1298c-0.0952,-0.1633,-0.0101,-0.2515,0.0715,-0.3328c0.0734,-0.0731,0.1631,-0.1905,0.2447,-0.2857c0.0816,-0.0952,0.1088,-0.1633,0.1631,-0.2721c0.0544,-0.1088,0.0272,-0.2041,-0.0136,-0.2857c-0.0408,-0.0816,-0.367,-0.8844,-0.503,-1.2109c-0.1324,-0.318,-0.2669,-0.275,-0.3671,-0.28c-0.0951,-0.0047,-0.2039,-0.0057,-0.3127,-0.0057c-0.1087,0,-0.2855,0.0408,-0.435,0.2041c-0.1495,0.1633,-0.571,0.5578,-0.571,1.3605s0.5845,1.5782,0.6661,1.687c0.0816,0.1088,1.1503,1.7561,2.7868,2.4625c0.3892,0.168,0.6931,0.2684,0.93,0.3435c0.3908,0.1241,0.7464,0.1066,1.0276,0.0646c0.3134,-0.0468,0.9652,-0.3945,1.1011,-0.7755c0.1359,-0.381,0.1359,-0.7075,0.0952,-0.7755C15.6745,13.1624,15.5657,13.1215,15.4026,13.0399L15.4026,13.0399z"
   fill="#FFFFFF"
   id="path4" />
    
  <rect
   style="fill:#6ebf3a;fill-opacity:1;stroke-width:0.021;stop-color:#000000"
   id="rect10"
   width="21.680294"
   height="21.769516"
   x="1.159853"
   y="1.115242"
   ry="1.5771898" /><path
   d="m 16.646049,7.3282499 c -1.2327,-1.2337 -2.872,-1.9134999 -4.6186,-1.9140999 -3.5986993,0 -6.5275993,2.9278 -6.5289993,6.5265 -5e-4,1.1503 0.3002,2.2732 0.8715,3.263 l -0.9263,3.3822 3.4610998,-0.9076 c 0.9536,0.52 2.0272995,0.794 3.1199995,0.7944 h 0.0027 c 3.5983,0 6.5275,-2.9281 6.5289,-6.5269 9e-4,-1.744 -0.6776,-3.3838001 -1.9103,-4.6175001 z m -4.6184,10.0421001 h -0.0022 c -0.9738,-4e-4 -1.9288,-0.2619 -2.7619995,-0.7562 l -0.1982,-0.1176 -2.0538998,0.5386 0.5482,-2.0019 -0.1291,-0.2053 c -0.5432,-0.8637 -0.8301,-1.8621 -0.8297,-2.8871 0.0012,-2.9911 2.4355998,-5.4246 5.4288993,-5.4246 1.4494,6e-4 2.812,0.5656 3.8365,1.591 1.0245,1.0254 1.5885,2.3884 1.588,3.8379 -0.0011,2.9915 -2.4355,5.4252 -5.4265,5.4252 z m 2.9766,-4.063 c -0.1632,-0.0816 -0.9652,-0.4762 -1.1147,-0.5306 -0.1495,-0.0544 -0.2583,-0.0816 -0.3671,0.0816 -0.1087,0.1633 -0.4214,0.5306 -0.5166,0.6394 -0.0952,0.1088 -0.1903,0.1225 -0.3534,0.0408 -0.1631,-0.0816 -0.6888,-0.2538 -1.3119,-0.8094 -0.4849,-0.4324 -0.8124,-0.9665 -0.9075,-1.1298 -0.0952,-0.1633 -0.0101,-0.2515 0.0715,-0.3328 0.0734,-0.0731 0.1631,-0.1905 0.2447,-0.2857 0.0816,-0.0952 0.1088,-0.1633 0.1631,-0.2721 0.0544,-0.1088 0.0272,-0.2041 -0.0136,-0.2857 -0.0408,-0.0816 -0.367,-0.8844 -0.503,-1.2109 -0.1324,-0.318 -0.2669,-0.275 -0.3671,-0.28 -0.095099,-0.0047 -0.2038995,-0.0057 -0.3126995,-0.0057 -0.1087,0 -0.2855,0.0408 -0.435,0.2041 -0.1495,0.1633 -0.5709998,0.5578 -0.5709998,1.3605 0,0.8027 0.5844998,1.5782 0.6660998,1.687 0.0816,0.1088 1.1502995,1.7561 2.7867995,2.4625 0.3892,0.168 0.6931,0.2684 0.93,0.3435 0.3908,0.1241 0.7464,0.1066 1.0276,0.0646 0.3134,-0.0468 0.9652,-0.3945 1.1011,-0.7755 0.1359,-0.381 0.1359,-0.7075 0.0952,-0.7755 -0.0406,-0.0678 -0.1494,-0.1087 -0.3125,-0.1903 z"
   fill="#ffffff"
   id="path4-2" /><path
   d="m 5.4436497,18.58585 c 1.6361542,1.636156 3.8964898,2.648128 6.3932163,2.648128 4.993368,0 9.041341,-4.047973 9.041341,-9.041342 0,-2.496726 -1.011972,-4.7570614 -2.648126,-6.3932152 z"
   fill="#231F20"
   opacity="0.1"
   id="path6"
   style="fill:#6ebf3a;fill-opacity:1;stroke-width:0.82194" /></g>
</svg>
